<svg xmlns="http://www.w3.org/2000/svg" width="27" height="27" viewBox="0 0 27 27"><g><g><g><path fill="#363636" d="M24.536 23.99a.546.546 0 0 1-.545.546H2.181a.546.546 0 0 1-.545-.546V4.634c0-.3.244-.545.545-.545h3.544v1.636a.818.818 0 1 0 1.636 0V4.089h4.907v1.636a.818.818 0 1 0 1.636 0V4.089h4.907v1.636a.817.817 0 1 0 1.636 0V4.089h3.544c.3 0 .545.245.545.545zm-4.09-21.536V.818a.817.817 0 1 0-1.635 0v1.636h-4.907V.818a.818.818 0 1 0-1.636 0v1.636H7.36V.818a.818.818 0 1 0-1.636 0v1.636H2.181A2.18 2.18 0 0 0 0 4.634V23.99c0 1.205.977 2.182 2.181 2.182h21.81a2.18 2.18 0 0 0 2.18-2.182V4.634a2.18 2.18 0 0 0-2.18-2.18z"/></g><g><path fill="#363636" d="M5.725 12.268V9.814h3.271v2.454z"/></g><g><path fill="#363636" d="M5.725 16.357v-2.453h3.271v2.453z"/></g><g><path fill="#363636" d="M5.725 20.447v-2.454h3.271v2.454z"/></g><g><path fill="#363636" d="M11.45 20.447v-2.454h3.272v2.454z"/></g><g><path fill="#363636" d="M11.45 16.357v-2.453h3.272v2.453z"/></g><g><path fill="#363636" d="M11.45 12.268V9.814h3.272v2.454z"/></g><g><path fill="#363636" d="M17.175 20.447v-2.454h3.272v2.454z"/></g><g><path fill="#363636" d="M17.175 16.357v-2.453h3.272v2.453z"/></g><g><path fill="#363636" d="M17.175 12.268V9.814h3.272v2.454z"/></g></g></g></svg>