<svg version="1.2" baseProfile="tiny-ps" xmlns="http://www.w3.org/2000/svg" viewBox="0 0 20 20" width="20" height="20">
	<title>person-svg</title>
	<style>
		tspan { white-space:pre }
		.shp0 { fill: #000000 } 
	</style>
	<path id="Layer" fill-rule="evenodd" class="shp0" d="M10 0.5C11.18 0.5 12.32 0.88 13.27 1.57C14.21 2.27 14.91 3.26 15.26 4.38C15.6 5.5 15.58 6.71 15.19 7.82C14.8 8.93 14.07 9.89 13.1 10.55C13.94 10.85 14.72 11.29 15.44 11.83C16.15 12.37 16.78 13.01 17.3 13.73C17.82 14.46 18.23 15.26 18.52 16.1C18.81 16.95 18.97 17.83 19 18.73C19.01 18.93 18.94 19.13 18.8 19.27C18.66 19.42 18.47 19.51 18.27 19.52C18.07 19.52 17.87 19.45 17.73 19.31C17.58 19.17 17.5 18.97 17.5 18.77C17.44 16.82 16.62 14.97 15.22 13.62C13.82 12.26 11.95 11.5 10 11.5C8.05 11.5 6.18 12.26 4.78 13.62C3.38 14.97 2.56 16.82 2.5 18.77C2.5 18.97 2.41 19.16 2.27 19.3C2.12 19.43 1.93 19.51 1.73 19.5C1.53 19.49 1.34 19.41 1.21 19.26C1.07 19.12 1 18.93 1 18.73C1.03 17.83 1.19 16.95 1.48 16.1C1.77 15.26 2.18 14.46 2.7 13.73C3.22 13.01 3.85 12.37 4.56 11.83C5.28 11.29 6.06 10.85 6.9 10.55C5.93 9.89 5.2 8.93 4.81 7.82C4.42 6.71 4.4 5.5 4.74 4.38C5.09 3.26 5.79 2.27 6.73 1.57C7.68 0.88 8.82 0.5 10 0.5ZM6 6C6 7.06 6.42 8.08 7.17 8.83C7.92 9.58 8.94 10 10 10C11.06 10 12.08 9.58 12.83 8.83C13.58 8.08 14 7.06 14 6C14 4.94 13.58 3.92 12.83 3.17C12.08 2.42 11.06 2 10 2C8.94 2 7.92 2.42 7.17 3.17C6.42 3.92 6 4.94 6 6Z" />
</svg>